<svg id="credit-card" xmlns="http://www.w3.org/2000/svg" viewBox="0 0 164 128.74"><title>credit_card@5x</title><path d="M0 119.36v-110C3.88 2.07 10-.07 18.08-.01q63.92.45 127.83 0c8.15-.06 14.18 2.13 18.09 9.37v110c-3.9 7.24-9.94 9.43-18.09 9.37q-63.9-.45-127.82 0c-8.15.07-14.21-2.07-18.09-9.37zM153 64.7H11v45.73c0 7.52 0 7.54 7.38 7.54h127.34c1.33 0 2.9.39 3.93-.18 1.35-.74 3.2-2.25 3.22-3.45.19-16.44.12-32.89.12-49.63zm-.43-32.65a8.33 8.33 0 0 0 .38-1.49q0-6 .06-12c0-7.81 0-7.82-7.6-7.82H18.53c-1.49 0-3.18-.36-4.44.21s-2.9 2-3 3.16c-.29 5.91-.13 11.84-.13 17.92z"/><path d="M87.16 96.73v10.28h-32.2V96.73zM43.53 107.13H22.26V96.84h21.27z"/></svg>