<svg id="filters" xmlns="http://www.w3.org/2000/svg" viewBox="0 0 163 147.16"><title>filters-icon</title><path d="M87.57 147.11a7.52 7.52 0 0 0-1.5 0c-1.4.2-2.1-.2-2.1-1.8 0-.7-1-1.4-1.5-2.1-.5.6-1.3 1.3-1.3 1.9 0 1.5-.4 2.2-1.9 1.9a20.85 20.85 0 0 0-2.5 0c-2.2 0-2.2 0-1.1-2a1.15 1.15 0 0 0-.1-1 5.07 5.07 0 0 0-1.6-.9c-.2 0-.8.7-.7.9.5 2.2-.9 2.2-2.3 2a30.59 30.59 0 0 1-4.1-1c-.1 0-.3-.7-.2-.9a20 20 0 0 0 1-2.1 2.5 2.5 0 0 0-.4-1.4c-.6-.9-1.1-.1-1.4.3-.5 1-.7 2-1.1 3-1.5-.6-3.1-1.2-4.6-1.9-1.9-.9-1.9-1.1-.6-2.8a2.27 2.27 0 0 0 .6-1.2c0-.3-.5-.7-.8-.9s-.6.1-.9.2c-2.6 2.1-2.6 2.1-5.3.2-.3-.2-.5-.5-.8-.5-1.3-.1-1.2-.4-.4-1.3a7.25 7.25 0 0 0 1.2-2.5 1.46 1.46 0 0 0-.5-1.2 1.68 1.68 0 0 0-1.3.4 3.88 3.88 0 0 0-1.1 1.5c-.2.7-.2 1.3-1.1.5-1.1-1-2.1-2.2-3.2-3.1s-.4-1.2.2-1.8c.4-.3 1-.7 1-1.1a8.52 8.52 0 0 0-.3-2.3 12.15 12.15 0 0 0-2 .9c-.3.2-.4.8-.6 1.2-.3 1-.5.9-1 0s-1.6-1.7-1.8-2.7-1.9-2.5.3-3.5c.3-.2.4-1.1.4-1.6a2.06 2.06 0 0 0-1.3-.3c-.7.2-1.7 1-2 .8a9.13 9.13 0 0 1-1.5-2.3c-.2-.4-.1-1-.4-1.3-1-1.2-1.3-2 .7-2.2a1.94 1.94 0 0 0 1.1-.9 3.29 3.29 0 0 0 .4-1.7 2.68 2.68 0 0 0-1.3-.3 1.84 1.84 0 0 0-1.3.4c-.6.5-.9.8-1.2-.3s-1.3-2.1-1-3.6c.1-.6-.6-1.4-.9-2.1a6.69 6.69 0 0 0 1.9.5 2 2 0 0 0 1.2-.6 12.9 12.9 0 0 0 .9-1.6 5.23 5.23 0 0 0-1.6-.6 1.57 1.57 0 0 0-1.3.4c-.7.6-1.1.5-1.1-.4s.1-2 0-3a13.38 13.38 0 0 0-.9-2.6 27.41 27.41 0 0 0 2.8-.5c.5-.1.8-.7 1.2-1.1a5 5 0 0 0-1.4-.8 3.52 3.52 0 0 0-3.2.8c-.2.2-1.7-1.4-2.7-1.6-2.1-.5-2.1-1.5-1.4-3.1.2-.3.4-.9.2-1a3.88 3.88 0 0 0-1.5-1.1c-.3-.1-.9.7-1 1.2-.7 2.1-.7 2.2-2.3 1a5.93 5.93 0 0 0-2-1.2c-2.1-.7-1.5-1.9-.8-3.2a5.58 5.58 0 0 1 .5-.8c.9-.8-.1-1-.4-1.4-.6-.9-1-.3-1.4.2a3.75 3.75 0 0 0-.7 1.2c-.1.9-.4 1.2-1.1.4s-1.6-1.7-2.5-2.5c-1.2-1-1.8-1.8-.1-2.9.3-.2.7-.6.6-.7a12.81 12.81 0 0 0-1.1-2c-.1-.1-1 .3-1.3.6-1.3 1.6-1.5 1.6-2.5.4-.4-.5-.6-1.1-1-1.6s-.7-1.1-1.1-1.5c-1.5-1.3-.3-1.3.7-1.5a2 2 0 0 0 1-1c.2-.4.5-1 .4-1.3s-.8-.5-1.2-.5a2.2 2.2 0 0 0-1.4.2c-1 .5-1.5.5-1.8-.1a8.61 8.61 0 0 1-1.5-2.2c-1-2.1-1-2.1 1.1-3.2.5-.3 1.1-1.4.9-1.7-.5-.7-1.2-1.8-2.3-.9-1.7 1.4-2.3.9-2.2-1.1v-.5c-.3-1-1.2-2.3-.8-3s1.9-.7 2.8-1.2c.4-.2 1-.7.9-1s-.6-.9-1-1a6.16 6.16 0 0 0-2.7-.1c-.5.1-1 1.1-1.2-.2a15 15 0 0 1 0-3c0-1-.2-2.3.3-2.8s1.8-.2 2.8-.4a1.35 1.35 0 0 0 .9-.9 1.36 1.36 0 0 0-.6-1.1 4.49 4.49 0 0 0-2 0c-1.1.1-1.4-.5-1.3-1.5a10.45 10.45 0 0 0 0-2.5c-.1-1.3 0-2.3 1.8-2.1a4.79 4.79 0 0 0 2.3-.5c.4-.2.6-.7.9-1a5.94 5.94 0 0 1-.8-.4 20 20 0 0 1-2.1-1c-.4-.2-1-.6-.9-.8a46 46 0 0 1 1.3-5c.1-.2.9-.2 1.3-.1.7.1 1.4.7 2.1.6 1-.1 1-1.3.6-2.1-.5-1-2.8-.1-2.2-2a23 23 0 0 1 2-4.2c.1-.1.9.2 1.4.4s.7 1.7 1.8.4c.7-.8 1.2-1.4.3-2.5-.6-.7-1.5-1.8-1.3-2.3a7.56 7.56 0 0 1 2.4-3.4c1-.8 1.7.6 2.3 1.3s1 .2 1.5-.2c.7-.5.7-1 0-1.4a1.38 1.38 0 0 0-.4-.3c-1.1-.9-1.3-1.7-.1-2.8a37 37 0 0 0 2.8-2.8c1.4-1.5 1.2-.2 1.5.7a2 2 0 0 0 1 1 1.31 1.31 0 0 0 1-.3c.3-.2.6-.8.5-1a9.34 9.34 0 0 1-1.3-1.5c-.2-.5-.3-1.4 0-1.6a16.15 16.15 0 0 1 3.6-2.1c.7-.3 2.4-2 2 .8 0 .3.4.8.6 1.1a13.24 13.24 0 0 0 2-1.2c.1-.1-.2-.7-.4-1-.3-.5-1.1-1.1-1-1.4.1-.5.8-1 1.4-1.4.4-.3.9-.2 1.3-.4 2.8-1.5 2.8-1.5 4.1 1a6.47 6.47 0 0 1 .4 1.3 8.64 8.64 0 0 0 1.4-1.3 3.18 3.18 0 0 0 .2-1.4c-.2-1.6.1-2.5 2.1-2.3 1 .1 2-.6 3.1-.9a1.58 1.58 0 0 1 .5.8c-1 1.6.4 1.9 1.3 2.1 1.3.3 1.1-.9 1.1-1.6-.6-1.3-.6-2.6 1.5-2.1a6.69 6.69 0 0 0 2 0c1.4-.2 2.2.1 2 1.8a6.15 6.15 0 0 0 .2 1.9c0 .2.6.3.8.3.4 0 .9-.2.9-.4a17.91 17.91 0 0 1 .2-2.4 2 2 0 0 1 1.1-1.1 20.9 20.9 0 0 1 2.5-.1c2.1-.4 2.6.7 2.3 2.5-.1.9.1 1.5 1.3 1.5s2-.1 1.8-1.6c0-.2-.1-.4 0-.5.3-.3.8-.9 1.2-.8.6 0 1 .8 1.6.9 1 .2 2 .2 2.9.3a7.83 7.83 0 0 0-.7 2.5c0 .4.6 1.1 1 1.1.9.2 2.1.3 1.9-1.3-.1-.8-.3-2.4 1.3-.8a3.81 3.81 0 0 0 2 1c2.4.3 2.5 1.6 1.7 3.5-.2.4.3 1.1.5 1.7a8.86 8.86 0 0 0 1.7-.8 2.4 2.4 0 0 0 .7-1.2c.1-.8.2-1.2 1.1-.5s1.9 1.1 2.7 1.8 1.6 1.2.8 2.8c-1.2 2.4-.7 3.7.8 4.7a1.48 1.48 0 0 0 1.3 0 1.52 1.52 0 0 0 .3-1.3c-.5-.8-1.8-1.8-1.6-2.1a7.85 7.85 0 0 1 2.4-2.4c.7-.6 1.6-1.1 2.3-1.6s.7-.4.9.7c.1.3-.1.8 0 1a2.85 2.85 0 0 0 1.4.8c.4.1 1.3-.1 1.3-.3a3.23 3.23 0 0 0-.3-1.7 18.76 18.76 0 0 0-1.2-1.8c2.1-.6 3.9-1.5 5.8-2.1 1.2-.3 1.2.8 1.1 1.6-.1 1.1.6 1.7 1.4 1.3.5-.3 2.1-.7 1-2-1.3-1.5.2-2.1 1-2.7a9.77 9.77 0 0 1 3-1.1c.9-.3 1.6-.1 1.6 1.1a3.33 3.33 0 0 0 0 1c.6.5 1.4 1.5 1.8 1.4 1-.3 1.4-1.2.2-2.1-.1-.1.1-1.2.3-1.2a37.45 37.45 0 0 1 4.5-1.2c1.4-.2 2.8-.2 1.2 1.8-.1.1.5 1.1.9 1.5a4.25 4.25 0 0 0 1.7.5 2.44 2.44 0 0 0 .4-1.3 3.19 3.19 0 0 0-.3-1.4c-.4-.5-1.1-1 .1-1.2a10.45 10.45 0 0 1 2.5 0 6.26 6.26 0 0 1 3 1c.6.7.4 2.1.7 3.1.1.3.6.8.9.8a1.45 1.45 0 0 0 1-.7 12.75 12.75 0 0 0 .1-2c.1-1.5.8-1.6 1.9-.8a2.27 2.27 0 0 0 1.2.6c2.5-.1 2.9 1.5 2.9 3.6 0 .5.5 1 .8 1.5.4-.4.8-.7 1.2-1.1s.5-.8.8-1.2c.6-.7 1.2-1.1 2.1-.4s1.8 1.5 2.8 1.6c2.2.3.9.9.3 1.6-.1.1-.3.2-.3.4-.2.6-.4 1.1-.6 1.7.6.1 1.3.5 1.8.4a2 2 0 0 0 1.1-1.1c.1-1.4 0-2.5 1.6-.8a27 27 0 0 0 3.4 2.5c1.4.9.6 1.5-.2 2.1a1.58 1.58 0 0 0-.7.7c-.1.4-.2 1 .1 1.3a1.23 1.23 0 0 0 1.3.2c3.2-1.7 3.1-1.6 5.3.4 1.6 1.4 1.4 2.4-.1 3.5-.3.2-.7.5-.7.7a3.08 3.08 0 0 0 .3 1.3c.1.2.7.3.9.2a8.78 8.78 0 0 0 1.5-1.2c.5-.5.9-.9 1.4-.1 1.1 1.5 2.4 3 3.5 4.6.1.1-.3.6-.5.8s-.7-.1-1 .1-1 .7-1.1 1.1a3.92 3.92 0 0 0 .4 1.8c.6-.2 1.3-.2 1.7-.7 1.2-1.5 1.8-1.3 2.2.5a3.25 3.25 0 0 0 .7 1.7c1.9 1.5.7 2.7-.5 3.4-.6.4-1.7.2-1.5 1.3s1.3.8 2 .7c1.1 0 2.3.4 2.6 1.2s.4 1.8.7 2.7c.7 2 .7 2-1.2 2.1a3.69 3.69 0 0 0-1.5.1 2 2 0 0 0-.6 1.1 1.52 1.52 0 0 0 .4.8c.1.1.3 0 .5 0 1 .3 2.5-.8 3 .8a50.33 50.33 0 0 1 1 5.6s-.6.3-.9.2a12.09 12.09 0 0 0-1.8-.5c-.4 0-1.1.2-1.2.5a1.31 1.31 0 0 0 .3 1.3c.6.5 1.7 1.3 1.9 1.1 1.4-1.1 2-.9 1.6.8-.3 1.5-1.3 2.9-.9 4.6-.3.1-.8.3-.9.2-1.3-1.4-2.1-.1-2.8.7s-.6 1.5.6 1.7c.6.1 1.3-.1 2 0 .4.1 1 .5.9.6a32.21 32.21 0 0 1-1.4 4.4 1.45 1.45 0 0 1-2.4.6c-1.3-1-1.7.5-2 1.1-.4.9.2 1.5 1.3 1.4 2-.3 1.8 1.2 1.5 2.2a31.74 31.74 0 0 1-1.9 4.2c-.6 1.1-.9.1-1.3-.2-.7-.6-1.2-1.7-2.4-1-.7.5-.3 2.1 1.2 2.7 1.3.4 1.8.3.6 1.5-.9.9-2.2 1.5-2.2 3.1 0 .3-1.6 3.1-2-.2a.45.45 0 0 0-.3-.3l-2.4.3c.1.6.1 1.4.4 1.7 1.3 1 1.6 1.8 0 2.9a6.17 6.17 0 0 0-1.8 1.8c-1.1 1.4-1.7 1.5-2.2-.4a2.51 2.51 0 0 0-1.8-.2c-.4.1-.8.9-.8 1.4s.6.7 1 1.1c.2.2.7.5.7.7-.5 2.3-3.4 1.9-4.4 3.8a11.32 11.32 0 0 1-1.3-1c-.1-.1 0-.5 0-.5-.7-.2-.7-2.1-2.1-.9-1.2 1-1.2 1.8 0 2.8s1.2 1.3-.5 1.9c-1.1.4-3 1.1-2.5 3.3.2.9-.8 2-.9 3.1-.2 2.3-.9.8-1.6.4a2 2 0 0 0-1.5 0c-.4.2-1 1.1-.9 1.2a6.48 6.48 0 0 0 1.6 1.7c.9.7 1.5-1.7 2.2-.4.3.5-.7 1.6-.9 2.5-.2.6.2 1.4-.1 2-.5 1.1-1.1 2.4-2.6.9a1.71 1.71 0 0 0-1.4 0 3.39 3.39 0 0 0-.9 1.4c-.1.1.4.5.6.7.8.7 2.3 1.5 2.2 1.9a16 16 0 0 1-2.1 4.6c-.1.2-1.5-.5-2.4-.6a1.48 1.48 0 0 0-1.3.4c-.2.3 0 .9.2 1.3.5.8 1.8 1.9 1.6 2.3a38.19 38.19 0 0 1-3.1 4.7 2.34 2.34 0 0 1-.7-.7c-.5-.6-.9-1.3-1.4-1.9a.76.76 0 0 0-.9-.1c-.3.3-.7.7-.7 1.1 0 .6 0 1.5.4 1.8 1.6 1.2 1.4 2.1-.1 3.2a13.89 13.89 0 0 0-2.1 2.1c-.8 1-1 .8-1.3-.4-.3-1-1.3-2.4-2.4-1.7-1.3.9-.7 2.3.4 3.3.6.6 2 1.3-.3 1.6-.8.1-1.4 1.7-2.2 1.8s-2.5 2.2-2.8-.6c0-.4-.6-.8-1-1a1.48 1.48 0 0 0-1.3 0 1.26 1.26 0 0 0-.3 1.3 18.11 18.11 0 0 0 1.8 2.1c-.9.6-1.8 1.2-2.8 1.8a8.11 8.11 0 0 1-2.1 1c-.5.2-1.1.2-1.7.4.2-.5.7-1.1.5-1.4a2.73 2.73 0 0 0-1.4-1.4 1.72 1.72 0 0 0-1.4.8 3.2 3.2 0 0 0 .2 1.9c.1.5 1.3 1.2.1 1.2a17.2 17.2 0 0 0-4.6 1.1c-1.1.3-2-.1-1.7-1.5 0-.2.1-.4 0-.5a11.32 11.32 0 0 1-1.3-1c-.2.4-.6.8-.6 1.1.3 2.6.3 2.6-2.2 2.6zm-36.9-140c-9.2-.7-14.1 1.4-21.3 5.1a40 40 0 0 0-12.3 10.2c-6.6 7.6-9 14.5-9.8 20.9a49.42 49.42 0 0 0 .7 17.1 44.68 44.68 0 0 0 9.9 18.9c3.3 3.7 7 7 11.8 8.9 1.1.4 1.6 2.8 3.1 1.6s2.2 1.1 3.3.3c.2-.2.8-.2.8-.3.1-.4.2-1.1 0-1.3a4.07 4.07 0 0 0-1.9-1.3c-1.5-.5-.9-1.7-.8-2.4a14 14 0 0 1 1.3-3.4c.2.1.5.3.7.4a5.84 5.84 0 0 0 1.8.4 1.51 1.51 0 0 0 1.1-.7 1 1 0 0 0-.1-.9c-.6-.5-1.3-.9-1.9-1.4-.3-.3-1-.7-.9-.8a24 24 0 0 1 2.1-4.6c.1-.2 1.5.3 2.3.4.4 0 1.3-.1 1.3-.3.1-.5.1-1.5-.2-1.6-2.2-1.3-.4-2.6-.1-3.9.1-.4.7-.7 1-1.1a1.37 1.37 0 0 1 2.2-.2c.3.3 1.2.7 1.3.6.7-.6 1.7-1.1.8-2.4-1.3-2-1.3-2.1.2-3.5l2.1-2.1c.8-.8.9-.2 1.1.5a3.27 3.27 0 0 0 1.1 1.5 1.57 1.57 0 0 0 1.3.4 1.17 1.17 0 0 0 .5-1.1 7.25 7.25 0 0 0-1.2-2.5c-.8-.9-.9-1.2.4-1.4.5-.1 1-.8 1.5-1.1.9-.6 1.8-1.2 2.8-1.8.5.8.9 1.6 1.4 2.3.2.3.6.7.7.6.5-.2 1.4-.6 1.3-.9-.2-1.1-1.1-2.3-.8-3 .4-1 1.8-1.5 2.6-2.4.3-.3.1-1 .3-1.4 1-2 .5-5.5 4.5-4.4.1 0 .5-.5.4-.8s-.3-1.1-.6-1.1c-.8-.1-1.7 0-2.5-.1-1.1-.1-.6-.5-.3-1.2a5.87 5.87 0 0 0 .4-2.3c.4-2.1 1.2-2.6 3.5-2.5a3.07 3.07 0 0 0 1.3-.3 10.1 10.1 0 0 0-.3-1.7c0-.1-.2-.3-.3-.4-.7-.4-1.4-.7-2.1-1.1a3.54 3.54 0 0 0 1-2.6 11.08 11.08 0 0 1 1.4-2.9c.6.5 1.2 1.1 1.8 1.6.2.2.7.4.8.3a3.46 3.46 0 0 0 1.5-1.1c.2-.3-.2-1.1-.6-1.3a3.74 3.74 0 0 0-1.8-.5c-1.4-.1-1.2-.5-.4-1.3s1.2-1.9 1.8-2.7a4.16 4.16 0 0 1 1.8-1.7c.4-.1 1.1.9 1.8 1.3.4.2 1.2.5 1.3.4a3.49 3.49 0 0 0 .6-1.7c0-.5-.6-.9-1-1.3-1.1-1-1.1-1 .1-2s1.3-1.9-.3-3c-7.8-5.3-16.1-8.7-25.3-7.9zm105.4 44.9c.9-3.9-.7-8.3-2-12.7a33.39 33.39 0 0 0-4.8-10.5 57.92 57.92 0 0 0-11.5-11.7c-5.9-4.6-12.7-6.8-19.7-7.8a41.64 41.64 0 0 0-21.7 2.9 32.5 32.5 0 0 0-10.7 6.8c-.7.7-.3.9.2 1.5s.9.7 1.5 0c.3-.3 1.1-.1 1.3-.4.9-1.4 1.6-.5 2.1.3.4.5.4 1.2.7 1.7s1 1.2 1.5 1.8a5.86 5.86 0 0 1-1.9 1.3c-1.2.4-1.2 1.1-.6 1.8s1.1 1.9 2.1.4 1.8-.7 2.5.2c1.7 2.7 1.6 3.3-.5 5.9a2.74 2.74 0 0 0-.2 1.3c0 .2.5.4.8.4a4.22 4.22 0 0 0 1.9-.3c.5-.2.9-1.2 1.2.1a26.72 26.72 0 0 1 .9 2.6c.2 1.2.8 2.7-1.5 2.7-.4 0-.8.6-1 1s-.5 1-.3 1.3a1.66 1.66 0 0 0 1.2.5 11.7 11.7 0 0 0 2.5-.7 28.25 28.25 0 0 1 .2 2.9v3c0 2.4.1 2.3 2.4 2.9a18.42 18.42 0 0 1 3.8 1.7c.6.3.9.8.1 1.4a5.71 5.71 0 0 0-1.3 1.4 1.79 1.79 0 0 0 .4 1.3c.1.2.7.2.9.1.6-.5 1.4-1.1 1.6-1.7.3-1 .3-1.6 1.3-.5.3.3.9.2 1.3.4a13.68 13.68 0 0 1 3 2.2c.2.2-1.1 1.6-1.6 2.5a1.7 1.7 0 0 0 0 1.4 1.93 1.93 0 0 0 1.5.7 2.42 2.42 0 0 0 1.4-1.4c.3-.9.1-2.2 1.5-.7l1.8 1.8c1.5 1.5 1.6 1.6.2 3.5-.9 1.3.1 1.8.8 2.4.2.2 1-.2 1.3-.5a1.26 1.26 0 0 1 2.1.1 9.27 9.27 0 0 0 1.4 1.4c1.5 1.1 1.1 2.1-.1 3.2-.5.4-.5 1.3-.7 2a19.67 19.67 0 0 0 2.4.3 5.31 5.31 0 0 0 1.4-.5 20.7 20.7 0 0 1 2 4.6c.1.4-1.5 1.2-2.3 1.9-.2.2-.5.5-.5.8s.2 1 .5 1.2a2.55 2.55 0 0 0 1.5 0c2.6-.4 2.7-.4 3 1.5.1.9.4 1.9.5 2.7.4 1.7-1.7.1-2.3 1-.2.3-.5.4-.7.7s-.6 1.1-.5 1.2a1.93 1.93 0 0 0 1.5.7c.6 0 1.2-.7 1.7-.6s.6 1 1.1 1.4a1.5 1.5 0 0 0 1.3.1c.8-.5 1.4-1.3 2.3-1.8 6.8-3.8 11.5-9.6 15.1-16.3 3-6.1 5.1-12.7 4.7-20.8zm-110.6 48.1a7.52 7.52 0 0 0-1.5 0c-2.9.4-.8-1.2-.9-2s.5-1.9-.8-1.9-1.9.6-1.7 2a1.73 1.73 0 0 1-.1 1c-1-.1-1.4.3-1.4 1.4 0 3.1 1.1 5.9 1.7 8.8.6 3.3 2.5 6 3.9 8.9 3 6.2 8.2 10.5 13.2 14.8a28.46 28.46 0 0 0 11.5 5.8c4.3 1.1 8.7 1.6 13.1 2.3.8.1 1.9.2 2.3-.3 1.2-1.1 2.5-.5 3.7-.7 2.2-.3 4.4-.5 6.6-1a32 32 0 0 0 4.3-1.7 41.42 41.42 0 0 0 16.7-12.6 43.5 43.5 0 0 0 8.1-15.1c2.2-1.6.1-4.3 1.8-6.3 1.1-1.2-.5-2.8-2.4-2-1 .4-1.6 1.4-1.5-.5a6.56 6.56 0 0 0-.1-2c-.1-.3-.7-.5-1.2-.6a1.58 1.58 0 0 0-.8.5c.8 3.4-1.1 3.8-3.8 3.6-.5-.1-1 .7-1.6.8a5.7 5.7 0 0 1-1.3-.1 6 6 0 0 0 .6-1.1q.9-3.45-1.8-2.7c-1.7.5-.9 1.7-.7 2.7a5.36 5.36 0 0 0 .5 1.1c-.3.1-.8.3-.9.2-1.3-1.4-3-.9-4.6-1s-1.6-.9-.8-1.9c1.1-1.4-.5-1.8-1-2-.9-.4-1.5.1-1.4 1.3v1.5c0 1.4-.5 1-1.3.4-1.2-.8-2.7 0-4.1-.9s-1.7-.9-.4-1.9c.4-.3 1.3-.7.4-1.4a3.67 3.67 0 0 0-1.6-.9c-.2 0-.8.9-.8 1.3 0 1.7-.5 2-2.1 1.1-1.3-.8-2.6-1.8-4.4-1.5 0-.3-.2-.8-.1-1 .4-.5 1.2-.9 1.3-1.4a3.18 3.18 0 0 0-.8-2c-.6-1-1-.1-1.4.3-.6.7-1 1.4-1.5 2.1-.8-.6-1.5-1.2-2.3-1.7-.6-.4-1.4-.7-2-1.1s-.9-.8-.1-1.4a3.74 3.74 0 0 0 1.3-1.5c.1-.3-.5-1.3-.8-1.3-.8-.1-2.3-.6-2.1 1.1.3 2.3-1.7 2.4-2.9 3.2-.7.5-.9.6-1.2-.4a3.91 3.91 0 0 0-1-1.6c-.3-.3-1.1-.6-1.2-.5a2.36 2.36 0 0 0-.7 1.6c0 .6.5 1.1.7 1.7.3.8.5 1.5-.8 1.7a16 16 0 0 0-3.1 1c-1.1.5-2.3 1.6-2-1 0-.3-.7-.9-1.2-1a4.07 4.07 0 0 0-1.8.5c.2.6.5 1.2.7 1.7.2.3.5.4.7.7a4.59 4.59 0 0 1 .1 1 50.33 50.33 0 0 1-5.6 1c-.3 0-.9-.9-.9-1.3.2-2-1.1-1.7-2.2-1.6-1.3.1-.9 1.2-.8 1.9.2 2 .2 2-1.4 2.1-2 0-2 0-4.5-2.3-1.2-1.1-1.9-1-2.1.7-.1 1.3-.5 1.8-1.7 1.6a4.71 4.71 0 0 0-2-.2zm67.7-3.9c2.8-.3 6.5-.7 10.1-1.2 2-.3 3-1.5 2.7-3.1-.6-3.2-1-6.6-2.3-9.5a53 53 0 0 0-10.8-16.5 64 64 0 0 0-8.1-6.5 18 18 0 0 0-7.2-2.3 7 7 0 0 0-1.7.6c.3.6.5 1.1.8 1.7.1.1.2.3.3.3 2.5.3 2.1 2.2 1.8 3.6-.2 1-1.1 1.9-.9 3.1 0 0-.7.3-.9.2-.4-.2-.7-.8-1.1-1a3.21 3.21 0 0 0-1.7-.2c-.2 0-.4.9-.3 1.3a3.07 3.07 0 0 0 .9 1.4c.1.1.3 0 .5 0 .9.1 2.2-.4.9 1.4-.8 1-.8 2.7-1.3 3.9-.1.4-1 .6-1.5.5s-1.1-.7-1.6-.8-1.6.1-1.7.5c-.4.9.2 1.2 1.2 1.6 1.8.7 1.8 1.5.7 3.1a13 13 0 0 1-1.9 2.2c-.2.2-.7 0-1 .1-1.2.3-2.2-2.4-3.4-.5-.9 1.4 1.1 1.9 1.7 2.7.5.6.5.8 0 1.5-1.7 2.1-1.7 2.3.2 3.8a46.64 46.64 0 0 0 4.7 3c6.3 3.5 13 4.8 20.9 5.1zm-61.9-2c1.5-.3 3.7-1.2 5.8-1a16.44 16.44 0 0 0 6-1.2c5.1-1.7 10.1-3.6 13.6-8.1.3-.4 0-1.1 0-1.7a5.28 5.28 0 0 0-1.3.1c-.1 0-.2.2-.4.3-1.9 1.4-1.8 1.4-2.9-.4-1.3-2-3.1-3.9 0-5.9.1-.1.1-.8-.1-.9-.4-.2-.9-.5-1.3-.4s-.7.6-1.1 1c-.8.8-.9 1.3-1.7-.3-.6-1.2-.3-2.6-1.1-3.5-1.5-1.8-.6-2.2 1.2-2.2.4 0 .8-.7 1.2-1.1-.6-.5-1.7-1.5-1.8-1.4-1.3 1.4-2.1.3-2.8-.5-1.1-1.2.5-3.4-1.4-4.4a3.51 3.51 0 0 1 .8-.5 7.52 7.52 0 0 1 1.5 0c.8 0 2 .1 1.6-1.1-.2-.8-1.2-1.3-1.9-1.9-1.1 1.9-3.2-1.3-4.3.8-6 2.4-9.7 7.5-13.6 12.2-2.2 2.5-3.4 5.9-5.1 8.8s-1.1 6.8-3 9.8c-.5.6.8 2.3 1.8 2.4 3.2.4 6.4.7 10.3 1.1zm41.8-35.1c0-4.6-.3-4.9-3.8-5-1.6-.1-3.2.5-4.7-.8a3.08 3.08 0 0 0-2.8-.1c-1.8 1.6-3.8.6-5.6.9a31.51 31.51 0 0 0-5.5 1.1c-.9.3-2.3 1.6-1.5 2.7 1.4 1.9.6 4.1 1.2 6a63.39 63.39 0 0 0 8.1 16c1 1.5 1.7 1.5 3.1.2 5.4-4.7 8.1-11 10.5-17.5a26 26 0 0 0 1-3.5zm.9-11.7c-.3-1.5-.9-2.6-.8-3.6.3-4.4-2.1-8.2-3.3-12.2-1.1-3.6-4.2-6.6-6.5-9.8-.4-.5-.8-1-1.4-.2-1.6 2-3.4 3.9-4.9 6a45.45 45.45 0 0 0-5.5 10.2c-1.1 3-.9 6.2-2.4 9-.5 1 .6 1.2 1.5 1.2 1.2 0 2.8-.5 2.5 1.8-.2 1.2.8 1.5 1.5 1 .5-.3 2.2-.7.8-2.1-.6-.6-.6-1.6.6-1.7a26.7 26.7 0 0 1 4 0c.4 0 .9.7 1.1 1.1.4.7.5 1.5.9 2.1.4.8 1 .6 1.4-.1.3-.5.8-1.1.7-1.7-.1-1.4.6-1.7 1.8-1.6a6.69 6.69 0 0 0 2 0c2.2-.4 2.4.8 2.3 2.5 0 .5.4 1.3.8 1.4 1.2.3 1.3-.6 1.2-1.5-.1-1.1.3-1.5 1.4-1.5 0 .3.3-.3.3-.3z"/></svg>