<svg id="flash" xmlns="http://www.w3.org/2000/svg" viewBox="0 0 114.79 147.84"><title>flash-icon</title><path d="M57.66.04h40.5c9.6 0 15.3 4.4 16.2 13.9.8 7.9.3 15.9-.1 23.8-.3 5.6-3.9 9.2-9 11.7a6.84 6.84 0 0 0-3.5 4.5c-3.5 20.3-6.7 40.7-9.8 61.1-.2 1.6 1.2 3.5 1.8 5.3 1 2.4 3.2 5.2 2.6 7.2s-3.8 4.4-6 4.5c-8.5.6-17 .3-25.5.3h-38c-3.6 0-6.8-.7-7.9-4.6-1-3.5.6-6 3.7-7.9.9-.5 1.4-2.4 1.3-3.6-3.3-21-6.6-42.1-10.1-63.1-.2-1.4-1.8-3-3.2-3.6-5.1-2.3-8.2-5.9-9.3-11.5a59.39 59.39 0 0 1 .2-26.2c1.8-7.4 7-11.7 14.6-11.8 13.8-.1 27.7 0 41.5 0zm.5 6.9h-41c-6.1 0-8.8 1.9-9.4 8a113.57 113.57 0 0 0 0 20.2c.6 6.5 3.5 8.6 10 8.6h78.9c8 0 10.4-1.6 11.3-9.3a90.87 90.87 0 0 0 0-18.8c-.8-7.1-3.2-8.7-10.2-8.7q-19.95-.15-39.6 0zm27.5 57.8h-55.7c2 12.9 3.9 25.4 6.1 37.8a4.24 4.24 0 0 0 3.3 2.6c12.3.2 24.6.2 37 0a4.34 4.34 0 0 0 3.3-2.5c2.1-12.4 3.9-24.9 6-37.9zm-7.8 69.9v5.3h-39.4v-5.3zm-3 13.2h-33.3c4.2-7.4 10.7-5.8 16.7-5.8 5.8 0 12.2-1.6 16.6 5.8z"/></svg>