<svg id="flesh" xmlns="http://www.w3.org/2000/svg" viewBox="0 0 32.01 59.43"><title>bolt</title><path d="M31.61 15.64a1.33 1.33 0 0 1 .25 1.57L12.58 58.53a1.56 1.56 0 0 1-1.5.89 2.7 2.7 0 0 1-.5-.07 1.48 1.48 0 0 1-.91-.68 1.3 1.3 0 0 1-.15-1.07l7-28.85-14.5 3.6a1.55 1.55 0 0 1-.43 0A1.65 1.65 0 0 1 .52 32a1.35 1.35 0 0 1-.47-1.4L7.22 1.1a1.58 1.58 0 0 1 .57-.82 1.59 1.59 0 0 1 1-.32h11.73a1.61 1.61 0 0 1 1.14.44 1.42 1.42 0 0 1 .46 1.06 1.45 1.45 0 0 1-.18.64l-6.1 16.54 14.14-3.5a1.77 1.77 0 0 1 .43-.07 1.64 1.64 0 0 1 1.21.53z"/></svg>