<svg id="holder" xmlns="http://www.w3.org/2000/svg" viewBox="0 0 104.08 147.31"><title>holder-icon</title><path d="M47.98 61.5V51.3l-1.5-.3c-1.6 4-3.7 8-4.7 12.1-1.3 5.2-1.8 10.6-7 13.8-.7.4-.9 1.7-1.3 2.6-3.4 8.9-6.8 17.9-10.3 26.8a12.14 12.14 0 0 1-1.4 2l.1.1c.3-1.7.7-3.4 1.1-5.5-2.4-.8-4.6-1.5-6.8-2.2 3.6-8.4 7.5-16.7 10.8-25.2 1.7-4.3 1.7-9.2 3.5-13.4 4-9.4 8.7-18.5 13.1-27.7 1.1-2.3 1.7-4.1-.6-6.5-2.8-3-.4-5.8 6.3-6.9v-9.9h6.1v9.8a38.23 38.23 0 0 1 3.9.8c3.3 1.1 4.6 4.4 2.1 6.5-2.7 2.2-1.7 3.8-.7 6 3.1 7.3 6.1 14.7 9.4 22 1.3 3 3.8 5.4 4.9 8.5 4.1 11.8 7.9 23.7 11.9 36-1.4.6-3.4 1.4-5.8 2.4-2.6-6-4.8-12.1-7.7-17.9-3.1-6.2-7.1-11.9-9.9-18.2-2.2-5-3.3-10.5-4.9-15.8-.6.1-1.2.1-1.9.2v9.8l.2-.1h-9.1zm27.1 6.7c-1.3-3-2.4-5.5-3.7-8.4-2.9 1.3-5.4 2.5-8.2 3.7 1.3 3 2.4 5.5 3.6 8.2 2.9-1.2 5.3-2.2 8.3-3.5zm-37.5 3.6c1.3-2.9 2.4-5.5 3.7-8.4-2.9-1.2-5.4-2.3-8.2-3.5-1.3 2.9-2.4 5.4-3.7 8.3 2.9 1.2 5.4 2.3 8.2 3.6z"/><path d="M56.78 61.5c0 4.3.1 8.6 0 13 0 1.6-.8 3.1-.8 4.7-.1 7.8-.1 15.6-.2 23.3l.2-.1h-7c0-3.5.1-7-.1-10.5-.7-8.6-1.6-17.1-2.2-25.7-.1-1.5.9-3.2 1.4-4.7l-.2-.1v8.2h9.1v-8.2z"/><path d="M55.78 102.5c.1 3.5.2 7 .1 10.5-.1 4.3-.4 8.6-.5 12.8-.1 2.4 0 4.9 0 7.5h-6c0-1.8.1-3.4 0-5.1-.4-7.2-.9-14.3-1.2-21.5a16.29 16.29 0 0 1 .8-4.3h-.1v6.6h7.4c-.1-2.5-.2-4.6-.3-6.7zm25.8 2.9c.8 1.4 1.6 2.9 2.6 4.8 2.5-1 4.8-2 6.5-2.7 3 8 6.1 16.2 9.4 24.7-1.5.7-3.1 1.4-4.5 2-5-9.7-9.8-19.2-14.6-28.6a1.42 1.42 0 0 1 .6-.2zm-77.7 27.1c2.4-5.8 5-11.5 7.2-17.3 1.3-3.4 2.1-7 3.1-10.5.5 4.3 3.5 5.9 7.7 3.9l-.1-.1c-1.8 3.1-3.9 6.1-5.3 9.4-3 6.9-5.6 13.9-8.4 20.9 2.5-4.8-.8-5.6-4.2-6.3zM60.38 3.1c5.5 1.2 10.1 2.3 14.7 3.2 3.5.7 7.2.8 10.7 1.6 1.1.2 1.8 1.9 2.7 2.9-1.2.5-2.7 1.7-3.7 1.4-3.6-.9-7-2.5-10.6-3.6s-7.1-1.7-10.5-2.9c-1.2-.3-2.2-1.7-3.3-2.6zm43.2 134.8c1.1 3.9.3 8.3-1.3 9-2.2-2.5-4.3-4.8-6.2-7zm-95.5 1.2c-1.8 2.6-3.7 5.2-5.5 7.9-3.4-1.2-3.5-6.4.1-12.9-1.1 4.7.1 5.7 5.4 5zm45.2 8.2c-4.9.3-1-6-4.4-7.2h7.1c-.8 2.2-1.7 4.4-2.7 7.2zM50.68 0c-1.7 2.1-2.8 3.5-4 4.8-.6.6-1.3 1.4-2 1.5-.5.1-1.6-.8-1.7-1.4-.1-1 .1-2.7.7-3 2-.9 4.3-1.2 7-1.9zm5.4 6.3h-7.2c-.2-.3-.5-.6-.7-.9 1.3-.9 2.7-2.5 4-2.5 1.5 0 3 1.4 4.4 2.3a9.74 9.74 0 0 1-.5 1.1z"/></svg>