<svg id="lens" xmlns="http://www.w3.org/2000/svg" viewBox="0 0 97.4 144.43"><title>lens-icon</title><path d="M0 29.79h97.3v58.6H0zm71.7 11.4a69.92 69.92 0 0 0 0 34.9 68.79 68.79 0 0 0 0-34.9zm-55 .5a66.18 66.18 0 0 0 0 34.5 70.67 70.67 0 0 0 0-34.5zm8.9-1c-3.1 13.8-2.7 30.5.6 35 2.7-10.6 2.6-26-.6-35zm37 35.3a72.31 72.31 0 0 0 0-34.6 66.56 66.56 0 0 0 0 34.6zm-19.7-.2h1.9a81.17 81.17 0 0 0-.2-34h-1.7zm38-34c-3.3 11.8-2.9 29.3.6 34.2 2.2-11.6 2.5-22.9-.6-34.2zm9.1-.1a70.67 70.67 0 0 0 .1 34.2 67.19 67.19 0 0 0-.1-34.2zm-56.2 34.2h1.7a77.4 77.4 0 0 0-.1-34.2h-1.6zm20.8-34c-.5 0-.9.1-1.4.1-3.2 8.4-2.9 29.1 1.4 35zM7 75.79c.6.1 1.1.1 1.7.2v-34.7H7a80.29 80.29 0 0 0 0 34.5zm87.3 34.9v20.8H3.4v-20.8h44c.2 3.9.4 7.6.6 11.3h1.3c.2-3.7.3-7.3.5-11.3zm3.1-17.9v13.7H.1v-13.7zM.3 27.39c-.4-5.7 2.3-8.9 7.4-8.9h81.8c5.1 0 7.6 2.8 7.8 8.9zm93.6-20.4c1.3 4.7-1.8 3.9-3.9 3.9H29.5c-7.7 0-15.3.1-23-.1-1.1 0-2.3-1.1-3.4-1.7 1-.7 2-2 3-2 29.2-.1 58.4-.1 87.8-.1zm-2.2 130.9H65.1c-18.5 0-37 0-55.5-.1-1.4 0-2.9-1.2-4.3-1.8 1.5-.8 2.9-2.2 4.4-2.2 26.2-.1 52.3-.1 78.5-.1 2.4 0 5-.2 3.5 4.2zm-79 2.4h71.7c1.1 3.9 1.1 4.1-2.3 4.1-22.3.1-44.5 0-66.8 0-3.2 0-3.6-1.4-2.6-4.1zm2.9-135.3a112.66 112.66 0 0 1 66.3 0zm-14.5 9.5c8-1.1 16-3.2 23.7 1.1a7.6 7.6 0 0 0 3.4.4c11.6 0 23.2.2 34.9-.1 2.5-.1 5-1.6 7.6-2.2-.7.3-1.5.5-2.2.8a4.1 4.1 0 0 0 .1 1.1h26.7v1.1H20.6c-6.4 0-12.9-.4-19.3-.6h14.8v-2.2c-5.1.1-10 .4-15 .6zm94-.6H75.9v-.4h19.5c-.1.1-.2.3-.3.4z"/></svg>