<svg id="like" xmlns="http://www.w3.org/2000/svg" viewBox="0 0 133 139.44"><title>thumbs_up_alt@5x</title><path d="M133 60v9a34.39 34.39 0 0 1-2 4.41c-1.88 3-1.86 6.12-1.84 9.52s-1.11 6.82-1.75 10.22a33.2 33.2 0 0 0-1.07 5.75 25.22 25.22 0 0 1-3.64 13.3 10.74 10.74 0 0 0-1.59 4.57c-1 14.94-12.54 21.55-22.28 22.17-14 .89-28.13 1.11-41.44-4.08-14-5.45-28.29-7.12-43.06-6.13-6.45.43-11.35-1.84-14.33-7.73V61c3-5.52 7.56-7.86 13.9-7.45 5.46.36 11-.12 16.44.15a9.22 9.22 0 0 0 8.21-3.65c3.46-4.24 6.75-8.68 10.62-12.53 6.2-6.18 10.25-13.22 11.52-22A21 21 0 0 1 71 0h10c1.2.47 2.37 1 3.6 1.41 7.67 2.45 12.34 7.7 14.07 15.45 1.62 7.27 1.52 14.53-1.24 21.6-.51 1.31-.88 2.66-1.45 4.45 5.36 0 10.17-.09 15 0a22.41 22.41 0 0 1 20.8 14.48c.34.9.77 1.74 1.22 2.61zm-53.23-6.52c1.14-3.68 1.93-6.69 3-9.59s2.49-5.81 3.77-8.69c2.19-4.91 2.28-10 1.35-15.19-1-5.61-4.25-8.53-9.73-9-3.61-.35-4.4 0-5.58 3.43-1.12 3.29-1.79 6.74-2.69 10.11-1.17 4.34-2.42 8.64-5.45 12.18-5.08 6-10 12-15.17 17.91-4.25 4.84-8.53 9.84-15.72 9.97-.93 7.68-.61 49.54.15 52.26 6 1.62 11.56 3.08 17.12 4.67 4.32 1.24 8.56 2.73 12.87 3.94a88.27 88.27 0 0 0 34.64 2.57c7.57-.9 11.52-5.56 11.64-13.1a18.69 18.69 0 0 1 0-3 5.93 5.93 0 0 1 1.14-3c4.44-4.45 4.85-9.59 2.92-15.14 5.07-7.48 5.34-10.09 1.88-18.28a15.82 15.82 0 0 0 2.48-2.29c4.53-6.34 5-13.31-2-17.74a13.41 13.41 0 0 0-6.61-1.67c-8.16-.19-16.32-.07-24.48-.09-1.56-.04-3.15-.15-5.53-.26zm-63.06 64.34a5.33124047 5.33124047 0 1 0-.23-10.66 5.33124047 5.33124047 0 1 0 .23 10.66z"/></svg>