<svg id="login" xmlns="http://www.w3.org/2000/svg" viewBox="0 0 55 46"><title>login</title><path d="M42 23a2 2 0 0 1 0 1L22 44a2 2 0 0 1-1 0 2 2 0 0 1-2 0 3 3 0 0 1-1-2V32H2a2 2 0 0 1-1-1 3 3 0 0 1-1-1V16a2 2 0 0 1 1-2 3 3 0 0 1 1 0h16V3a2 2 0 0 1 1-1 2 2 0 0 1 2-1 2 2 0 0 1 1 1l20 19a2 2 0 0 1 0 2zm13-13v25a10 10 0 0 1-3 8 10 10 0 0 1-7 3H33a1 1 0 0 1-1-2v-1a2 2 0 0 1 0-1 2 2 0 0 1 1-1h12a5 5 0 0 0 4-2 6 6 0 0 0 1-4V10a5 5 0 0 0-1-4 6 6 0 0 0-4-2H32V2a2 2 0 0 1 0-1l1-1h12a10 10 0 0 1 7 3 10 10 0 0 1 3 7z"/></svg>