<svg id="logo" xmlns="http://www.w3.org/2000/svg" viewBox="0 0 2099 962"><title>Logo1 exp</title><path d="M1134 0l-40 17-66 26c-3 1-3 3-2 5l2 5c-7-5-14-3-20 0l-17 10 10 15c2 5 5 5 9 2l12-8 11-8-1-4a5 5 0 0 1 1 0l1 1c6-3 10 2 14 4 5 3 11 1 15-4l7-10a21 21 0 0 1 6-5c5-2 7-1 8 4a9 9 0 0 0 1 3l10-5c5-1 9-3 8-9l2-4 40-13c8-3 10-1 11 6 2 10-1 19-7 27l-15 14-18 18c-3 4-3 7 2 8l11 3 6 2 36 38c8 8 14 18 20 28 2 2 1 4-2 5l-89 34a315 315 0 0 1-43 13 61 61 0 0 1-26-1c-7-1-14-2-22 1l-59 18-20 6c-3 1-5 3-6 6-7 39-29 68-58 93l-39 32-4 8-5 49-6 46-3 29c-2 26 1 51 9 75a350 350 0 0 1 12 37c2 7 2 15 2 23-1 5 2 8 4 12 3 6 8 11 10 17a289 289 0 0 1 7 39 558 558 0 0 1 4 91c-2 44-16 83-46 116-18 21-41 35-68 42-6 2-13 2-19 3l-9 2h-20a18 18 0 0 0-3-1l-41-5-88-15a976 976 0 0 0-81-9l-52-2-70 5-51 7-58 2a108 108 0 0 1-42-7c-15-5-29-13-44-20-17-8-35-12-54-8l-53 12-19 4-3-39 1-53a388 388 0 0 1 9-70l19-85a7 7 0 0 0-1-5l-21-26c-16-19-31-38-38-62l-5-20v-15a63 63 0 0 1 2 6 68 68 0 0 0 14 30c15 17 33 28 56 31 26 3 45-6 62-24l20-24a168 168 0 0 0 35-59c10-32 24-61 42-89l-1-1a23 23 0 0 0-4 2c-10 6-20 12-29 20l-49 47a223 223 0 0 1-29 24c-26 17-54 22-83 20l-10-2c3-11 10-20 21-28l43-32c8-6 15-15 18-27l-11 7-28 23a48 48 0 0 1-44 8 11 11 0 0 1 1-2l33-28c18-14 36-28 50-46l8-12-1-2c-20 4-37 16-57 21a92 92 0 0 1 13-11c12-9 25-12 39-16l49-11c5-1 8-3 9-8 1-10 1-20-5-28-2-2-1-5-1-7l3-16-4-23-6-36c0-3-1-5-4-5l-17-2-7-2v-2l7-3c6-2 12-4 18-8 6-3 9-8 11-16a210 210 0 0 1 8-32c10-28 29-48 56-60a21 21 0 0 0 11-11c6-13 12-26 23-36a91 91 0 0 1 8-6 4 4 0 0 1 0 3 15 15 0 0 0 0 2 7 7 0 0 0 1-1c23-20 51-29 81-33 11-1 22 1 34 1h13l24-5c4-1 5 1 4 4l-4 8 8 2 25 2c11 1 21 0 30 7 3 2 6 2 9 0a66 66 0 0 1 14-4 7 7 0 0 1 6 2c4 5 1 14-6 15a9 9 0 0 0-2 1l20 17 11 9c5 3 10 4 16 3a42 42 0 0 1 12-1c2 0 5 1 5 3a7 7 0 0 1-3 5l-10 5 4 2 4 1a19 19 0 0 1 3 6c1 1-2 2-4 3l-2 1c7 11 9 23 10 35 0 4 2 5 5 4l4-2 11-13 4-4c7-3 15-3 21-9l8-4c18-7 37-10 55-13 8-1 15 5 16 13l-12-2a143 143 0 0 0-45 13 6 6 0 0 0-3 4 15 15 0 0 1-8 11l-11 7a59 59 0 0 0 13-4 208 208 0 0 1 68-17c4 0 8 0 8 5l-1 19c-2 11-7 21-9 32-2 10 1 21 13 21a20 20 0 0 0 0-4l1-40c0-11 2-21 6-31a9 9 0 0 1 5-4l19-6 97-34a9 9 0 0 1 7 1c3 3 6 3 9 2l16-7c6-3 9 0 13 3 16 16 22 36 27 56l11 51 2 7 11-5-5-24h1l3 3a549 549 0 0 0-32-99l25-8c4-2 8-3 11 1 10 10 19 21 24 35 10 22 15 46 21 69 1 5 7 9 11 8 9-2 13-9 17-16a4 4 0 0 0 0-3l-15-52v-7h1l16 43c4-2 7-5 6-10a87 87 0 0 0-3-17l-10-25-17-36c-2-5-6-9-9-14l24-17c27-17 57-28 87-37l39-11zM551 452c-5-7-10-14-19-14-6-1-9-4-14-7l-3-3c-21-15-41-30-64-40s-48-19-73-19c-8 0-17 1-23 4a328 328 0 0 0-72 61c-17 19-32 39-42 62l-6 14c10 1 18-5 26-9 7-3 7-3 4-10a20 20 0 0 1 4 0 21 21 0 0 0 18-2l29-19c8-5 15-13 26-13 0-8 4-11 10-9l1-5c4 6 5 6 12 1l6-3-1-1 7-7v10h4c-2-6-2-6 3-8l1 6 10 1a61 61 0 0 1-5-6 5 5 0 0 1 0-4h3a33 33 0 0 1 5 5c2 2 5 5 9 2l-4-4 9-3 8 3-3 7c9-2 17-6 26-3l-7 7c8 0 14 1 19 8a5 5 0 0 0 2 1l23 8c9 2 18 4 26 10l23 18 50 40 4 1 13 6 10 5a27 27 0 0 1-8-9l-11-24a4 4 0 0 1 1-3c5-10 10-20 17-29 3-5 8-9 13-10 7-2 9-6 10-12a74 74 0 0 0-1-14l-2-4a11 11 0 0 0-6 2l-4 5-6 3-1-2 15-18-31 22-32 16v8l-11-10c-3-3-9-4-13-6a51 51 0 0 1-9-10c-3-3-1-5 2-5a45 45 0 0 1 12 3l10 6zm24-33c4-8 4-15 2-23-7-23-8-47-6-71l4-46c0-12-4-22-11-32-1-2-4-4-7-4-8 1-14-1-19-7a67 67 0 0 1-6 6 4 4 0 0 1-3 1l-1-4 1-7-6 4c1-7-3-8-8-10l18-8 2-3a30 30 0 0 0-15-17c0 5 7 8 4 15l-10-16c-3 7-6 12-7 18l-4 31-2 9-4-6-5 17c-1 4-4 8-1 13l-1 2c-6 8-7 18-8 27a87 87 0 0 1-4 18c-1 3-4 6-7 9l-1-1 3-13c-5 9-10 17-11 27a6 6 0 0 0 2 5l43 25a67 67 0 0 0 25 10l-3-13c-2-8-2-8 1-11 3 14 17 36 25 41 0-13-11-22-10-35 5 19 14 36 30 49zm2 145v1l39 10 3 3c1 5 4 7 8 9l5 6c0 3 2 4 4 5 4 3 9 5 11 9 5 10 13 16 23 20l16 6a43 43 0 0 1 25 22l13 26c4 11 12 15 22 19l4-1c0-5 6-3 7-6 6 3 11 7 16 8 7 3 12 6 14 13l8 14a46 46 0 0 0 4 6 4 4 0 0 0 0-4c-5-9-9-19-15-28-6-7-4-14-1-21 2-4 5-4 8-1l12 14 25 23 2-1a45 45 0 0 0-1-4c-2-6-6-11-11-15-9-6-9-8-3-16l-12-14-3 5-19-10-21-5-26-6a26 26 0 0 1-5-2l7-3-1-1-9 2c-5 2-7 1-9-6h39c23 1 42 10 59 24l8 8c-16-32-61-58-84-49l19 3c6 0 12 3 16 9h-24c-11-1-22 1-32 3-8 1-8 2-12-6-1-4-4-5-8-5l-14-2c-14-5-26-12-30-28s-14-23-31-24a7 7 0 0 1-5-3c-1-3-2-4-5-4l-26-2-10-1zm127-237l2 2 5-3 24-3c13 0 26 5 39 10 3 1 5 0 6-3l7-33a48 48 0 0 0-3-26c-3-7-10-11-17-10a75 75 0 0 0-9 2c-7 2-7 3-5 10a42 42 0 0 1 2 6c1 6-2 9-8 11l-27 9-7 4 11 2c-7 8-16 14-20 22zm-54 23c13-11 25-23 40-32a5 5 0 0 0 2-2l1-3c-3-5 1-6 4-9l24-31c9-11 17-22 33-19 4-7 3-15 0-20-7-12-23-10-31-2-5 6-11 12-15 19l-42 70-16 29zm-44-33c0 5 2 9 0 13-4 9-1 16 3 24 2 4 6 6 10 3l11-8 38-47a27 27 0 0 0 2-4l-17 11-18 7c-4 2-7 2-10-1-2-2-5-2-8-2l-11 4zm12-85l-2 1 7 13c2 3 4 4 8 4a101 101 0 0 1 13 2c12 2 23 0 35-3 2-1 4-2 3-5l-9-19a3 3 0 0 0-2-1 1591 1591 0 0 0-35 0c-1 6-5 3-8 3h-6c-1 5 1 9 4 12l3 7h-2zm-81 322a12 12 0 0 0-2-1c-25-10-47-23-69-36l-57-34c-2-1-5-2-6-1a53 53 0 0 0-11 9l-1 6c8-2 27 4 30 8l16-4c27 30 62 43 100 53zm174 25l40-10c16-4 33-6 47 7-6-13-17-20-30-26-13-5-42-9-49-5a13 13 0 0 0 3 1l16 4c6 1 4 5 5 9 0 3 0 5-3 7-7 2-13 8-22 4-4-1-9 1-13-3l-1 2zM381 256l-1-2h-9c-9 0-16 7-16 17-1 13 4 24 12 34l12 8c2 2 4 2 4-2l2-22c0-6-4-10-10-11l1 20h-2l-6-10c-2-3-1-8-1-12-2-9-2-10 6-14l8-6zm343 365c38-11 71-1 102 21l1-2-35-44h-1l2 6c-29-23-72-19-83 0 17-8 34-13 52-10 19 2 32 13 45 29a36 36 0 0 1-5 0l-39-6c-13-2-27-2-39 6zm-434 43l-21-8-25-7-6 1v2c17 5 32 16 52 12zm297-403v2l6 3 5-5 11-7c1-1 3-4 2-5-1-4-8-6-14-4-5 1-3 4-3 7 0 5-1 9-7 9zm118-25c1 5-2 8-5 11-3 5-6-2-9-1l-1 8c6 1 11 0 14-5 5-6 3-19-4-21-4-2-9-2-13-1l-2 7h1l5-6 4 3a51 51 0 0 0 7 1l-3 5zm-116-54l-6 2c1 13 4 12 16 9zm6 107c3 8 6 10 12 8l1-10zm421-184l6-15-7 2c-3 2-5 5-4 9l5 4zm-441 85l-5 3 5 6c3 0 6-2 9-4zm133 144l-8 6-8 4c7 2 11-2 16-5v-5zm-67 117h-1l-3 14 2 4 3-3-1-15zm145 206c-9-8-22-12-28-10l14 5 14 5zm113-403h-2l-3 15c6-4 5-10 5-15zm-82 469l-7-14-1 1c-1 6 2 11 8 13zM547 209h1l17-2c4 0 4-2 3-3zm86-52l-1-1-5 1c2 6-4 6-7 9 6-3 11-3 13-9zm86 50c4-5 4-8-1-13l1 13zm-41 414c6-1 9-5 10-11zm7-39l1 2 15-2v-1zm-46-212c6 0 6 0 5-10l-5 10zm31-5l2 2 10-9-2-2 2 3zm-90-131l-3 1 3 13h2zM2099 696h-58v157h-39V696h-57v-32h154zM1086 717l4 136h-40V664h47c3 0 5 1 6 4l45 127 2 5 2-5 45-127c0-2 2-4 3-4h49v189h-39l4-138-13 35-36 99c-1 3-3 5-6 5a162 162 0 0 0-18 0c-4 0-5-1-6-5l-46-126-2-6zM1613 854h-27c-13 1-19-3-24-15-7-17-17-33-25-49-2-4-4-7-9-6h-25v69h-39V664a11 11 0 0 1 2 0h78c15 0 29 4 41 14 16 12 20 29 19 48-1 22-11 37-30 47l-2 1-1 1zm-110-102h30a54 54 0 0 0 8 0c15-3 24-12 24-27 0-16-7-27-21-28-13-2-27-1-41-1z"/><path d="M1050 533V344a12 12 0 0 1 2 0h62c42 1 75 32 80 73 3 21 3 42-5 62a81 81 0 0 1-78 54h-61zm40-31h18c24 0 40-12 45-36a128 128 0 0 0 0-56c-3-12-9-23-21-29-13-7-28-5-42-5zM1451 404h-38l-1-4c-4-22-21-29-41-27-13 2-23 10-28 22-4 10-6 20-6 31-1 15-2 31 3 46 6 23 22 34 45 32 9 0 17-1 24-6l3-4v-31h-35v-29h74v6l1 65a12 12 0 0 1-5 9 83 83 0 0 1-41 19c-18 4-35 5-53 0-30-9-47-30-53-60-6-25-6-50 1-75 10-38 42-60 81-57 13 1 27 4 39 11 19 11 28 30 30 52zM1634 664h39v83l1 1 3-4 59-78a7 7 0 0 1 5-2h43a9 9 0 0 1 2 0l-5 8-58 72c-3 3-3 5-1 8l63 96 4 6h-42c-4 0-6-2-8-5l-43-67-3-4-19 20-1 5v50h-39zM1323 814l-11 34c-1 4-3 6-7 6h-36l1-6 67-180c1-3 3-4 7-4h28c1 0 4 1 4 3l70 184a12 12 0 0 1 0 3h-26c-5-1-11 1-15-2-3-2-4-8-5-13l-8-21c0-2-2-4-4-4h-65zm35-100h-1l-23 68h47l-23-68zM1870 533h-40l-3-3-11-32c-1-3-2-4-5-4h-60c-4 0-5 1-6 4l-10 31c-1 3-2 5-6 5h-37l10-28 59-158c1-3 2-4 6-4h28c3 0 4 0 5 3l69 184 1 2zm-89-139h-1l-22 68h46l-23-68zM1931 822v31h-128V664h127v31h-87v45h74v31h-74v51zM1548 376v-32h154v31h-57v158h-40V376zM1927 502h83v31h-122V344h39zM1485 344h39v189h-39zM1226 344h39v189h-39z"/></svg>