<svg id="memory" xmlns="http://www.w3.org/2000/svg" viewBox="0 0 113.6 150.43"><title>memory-icon</title><path d="M49.47.07c13.5 0 27-.2 40.5.1a12.6 12.6 0 0 1 7.3 3.1c5.4 4.9 12.4 9.5 14.9 15.8 2.6 6.6.9 15.1.8 22.7 0 1.7-1.9 3.3-2.2 5a20 20 0 0 0 0 6.9c.3 1.8 2.2 3.4 2.2 5.2.1 27.6.1 55.3.1 82.9 0 7.1-1.5 8.6-8.4 8.6-10.2 0-20.3.2-30.5-.1s-20.3-1.5-30.5-1.5c-11.8 0-23.6 1.2-35.5 1.6-6.5.2-7.8-1.3-7.8-7.9 0-23.3 0-46.6.2-69.9 0-1.5 1.5-3 2.3-4.5a6.65 6.65 0 0 0 1.2-2.9q.15-12.75 0-25.5c0-.8 0-2.2-.4-2.4-5.7-1.9-3-6.6-3.2-10-.3-6.5 0-13 0-19.5.1-5.9 1.5-7.4 7.5-7.5 13.8-.1 27.6 0 41.5 0zm46.2 40.7h-78.5v92.9h78.5zm-34.6-36.2v9c0 8.5 0 8.5 8.4 7.8.3 0 .6-.3 1.1-.6V4.57zm-14 .1c0 4.4.3 8.3-.1 12-.4 4.1 1.3 5.5 5.1 4.9 1.3-.2 2.6-.2 4.2-.3V4.67zm37.8.2h-9.1v16.4h9.1zm-56.9-.1h-8.8v16.4h8.8zm14.1 16.6V4.77h-8.9v16.6z"/><path d="M2.07 38.87v10h-1v-10z"/></svg>