<svg id="phone" xmlns="http://www.w3.org/2000/svg" viewBox="0 0 50 50"><title>phone</title><path d="M50 40a9 9 0 0 1 0 2 13 13 0 0 1-1 3l-4 3a14 14 0 0 1-7 2 12 12 0 0 1-2 0h-2l-1-1h-2a7 7 0 0 0-2-1 31 31 0 0 1-7-3 56 56 0 0 1-9-8 55 55 0 0 1-8-9 37 37 0 0 1-3-6 17 17 0 0 1 0-2l-1-2-1-2a9 9 0 0 1 0-2v-2a14 14 0 0 1 2-6c1-3 2-4 4-5a10 10 0 0 1 2-1 16 16 0 0 1 3 0l2 3 1 2 2 2 1 2a6 6 0 0 1 0 1l1 1a2 2 0 0 1 0 1 3 3 0 0 1-1 2 21 21 0 0 1-2 2 20 20 0 0 0-2 2l-1 1a3 3 0 0 0 0 1 2 2 0 0 0 1 1 4 4 0 0 0 0 1 8 8 0 0 1 0 1 37 37 0 0 0 7 8 37 37 0 0 0 8 6 7 7 0 0 0 1 1h1a3 3 0 0 0 1 0 2 2 0 0 0 2 0 20 20 0 0 0 2-3 21 21 0 0 1 2-2 3 3 0 0 1 1-1 2 2 0 0 1 1 0 12 12 0 0 1 2 1l1 1 1 1 3 1a20 20 0 0 1 2 1l2 2v1z"/></svg>