<svg id="photocamera" xmlns="http://www.w3.org/2000/svg" viewBox="0 0 157.69 119.55"><title>photocamera-icon</title><path d="M47.54 119.55c.6-5 1.6-9.3 1.6-13.7.1-25.5 0-51-.1-76.4 0-4-1-8.1-1.5-12.5a7.47 7.47 0 0 1 2-.2c5.8.2 11 .8 13.6-6.9 1.6-5 7.2-7 13.1-6.9.2 2.3.4 4.4.6 6.8h33.7c.2-2.1.4-4.2.6-6.2a13.63 13.63 0 0 1 14.8 9c1.2 3.1 2.1 3.8 5.9 3.4 6.5-.6 13.2.3 19.7 1.3 4 .6 6 4 6.1 8.1 0 28.3.1 56.6 0 84.9 0 5.8-3.3 9.2-9 9.2-34 .1-67.8.1-101.1.1zm6.7-44.5a37.85 37.85 0 1 0 37.8-37.8 37.68 37.68 0 0 0-37.8 37.8zm39.4-42.2c3.7 0 7.3.1 11 0 7-.1 11.7-4.4 12-10.7.2-6.1-4.5-11.2-11.3-11.5a228.3 228.3 0 0 0-23.4 0 11.15 11.15 0 0 0-11 11.3c.1 6.3 4.9 10.8 11.8 10.9zm-49.9-6.2c.3 1.6 1 3.1 1 4.7.1 25.5.1 50.9 0 76.4 0 8.7-3 11.7-11.7 11.8h-22.5c-7.1-.1-10.4-3.2-10.5-10.4-.1-26.9 0-53.9 0-82 7.3 10 15.7 16.2 27.7 13.1 7.4-1.9 13.1-6.3 16-13.7z"/><path d="M43.94 26.55c-1.4 1.4-2.8 2.7-4.1 4.1a23.35 23.35 0 0 1-38.4-4.8c-1.8-3.4.4-7.2 5.2-8.9 5.7-1.9 6.1-2.7 3.7-8.7 2-.2 3.9-.5 5.7-.6 4-.1 8 .2 12-.1 4.8-.4 8.4 0 7.4 6.4-.1.9 1.7 2.5 2.9 3.1 4.2 2 6.7 4.7 5.4 9.7 0-.1.2-.2.2-.2zm-5.2-3.1H6.04c4.2 6.8 8.9 11 16 11.2 7.3.1 12.3-4.1 16.7-11.2zm-4.3-12.7c-5.9 0-11.9-.1-17.8.1-1.4.1-2.7 1.4-4.1 2.1 1.3.7 2.6 1.9 4 1.9 5 .2 10-.2 14.9.2 3.7.4 3.9-1.2 3-4.3zm74.9-2.4h-31.2c.3-2.4.3-4.7 1.1-6.7.9-2.3 3.5-2.1 4.9 0a3.47 3.47 0 0 0 2.6 1.1c4.5.1 8.9.2 13.4 0 1.4-.1 4.3 1.6 3.5-2.2 1.6.4 4.1.3 4.7 1.3 1 1.6.7 4 1 6.5zm-50.6 66.5c.1-18.6 15.1-33.2 34-33.1 18 .1 32.8 15.3 32.7 33.5a33.3505997 33.3505997 0 1 1-66.7-.4zm2.9.4a30.45 30.45 0 1 0 30.4-30.6 30.56 30.56 0 0 0-30.4 30.6z"/><path d="M92.04 62.25c-3.9-.6-6.3-2.5-6.3-6.6a6.12 6.12 0 0 1 6.8-6.3c3.9.4 6.1 2.8 5.9 6.7s-2.7 5.8-6.4 6.2z"/></svg>