<svg id="twitter" xmlns="http://www.w3.org/2000/svg" viewBox="0 0 37 30"><title>twitter</title><path d="M37 4a15 15 0 0 1-5 1 7 7 0 0 0 4-4 14 14 0 0 1-5 1 7 7 0 0 0-6-2 7 7 0 0 0-5 2 7 7 0 0 0-2 6 7 7 0 0 0 0 1 21 21 0 0 1-9-2 22 22 0 0 1-7-6 7 7 0 0 0-1 4 7 7 0 0 0 4 6 9 9 0 0 1-4 0 7 7 0 0 0 2 4 7 7 0 0 0 4 3 7 7 0 0 1-2 0 8 8 0 0 1-1 0 8 8 0 0 0 3 4 7 7 0 0 0 4 2 15 15 0 0 1-9 3 11 11 0 0 1-2 0 21 21 0 0 0 11 3 20 20 0 0 0 8-1 20 20 0 0 0 6-4 20 20 0 0 0 4-5 22 22 0 0 0 3-5 21 21 0 0 0 1-6V8a17 17 0 0 0 4-4z"/></svg>