<svg id="vk" xmlns="http://www.w3.org/2000/svg" viewBox="0 0 69 39"><title>vk</title><path d="M69 3l-6 11-2 3-2 2a14 14 0 0 0-1 2 2 2 0 0 0-1 2 5 5 0 0 0 1 1 5 5 0 0 0 1 1l2 2a35 35 0 0 1 7 8v1a5 5 0 0 1 1 1 2 2 0 0 1 0 1 2 2 0 0 1-1 1 4 4 0 0 1-3 0h-9a4 4 0 0 1-2 0 7 7 0 0 1-2-1 23 23 0 0 1-3-2 19 19 0 0 1-2-3 14 14 0 0 0-2-2 2 2 0 0 0-2-1h-1v1a5 5 0 0 0-1 1 6 6 0 0 0-1 2 8 8 0 0 0 0 2 3 3 0 0 1 0 1 5 5 0 0 1 0 1 3 3 0 0 1-2 1h-4a16 16 0 0 1-5 0 18 18 0 0 1-5-2l-4-3a21 21 0 0 1-2-2l-1-1a13 13 0 0 1-1-1l-3-3-4-6a76 76 0 0 1-4-7L0 5a4 4 0 0 1 0-1V3a2 2 0 0 1 2-1h10a2 2 0 0 1 1 0 2 2 0 0 1 0 1h1a2 2 0 0 1 1 1l1 3 2 3v1l2 4a14 14 0 0 0 2 2 10 10 0 0 0 1 2 3 3 0 0 0 2 0 4 4 0 0 0 1 0 6 6 0 0 0 0-1 6 6 0 0 0 1-2v-2a33 33 0 0 0 0-5 19 19 0 0 0 0-3 4 4 0 0 0-1-1V4a4 4 0 0 0-3-1V2a4 4 0 0 1 2-1l8-1a20 20 0 0 1 5 1 3 3 0 0 1 1 0 2 2 0 0 1 1 1 8 8 0 0 1 0 1 7 7 0 0 1 0 2v12a5 5 0 0 0 1 1 2 2 0 0 0 0 1h1a2 2 0 0 0 1 0 13 13 0 0 0 1-2 22 22 0 0 0 2-2l3-4a65 65 0 0 0 3-8 2 2 0 0 1 1 0V2h12a6 6 0 0 1 2 0l1 1z"/></svg>